<svg width="277" height="1028" viewBox="0 0 277 1028" fill="none" xmlns="http://www.w3.org/2000/svg">
<path fill-rule="evenodd" clip-rule="evenodd" d="M28.9112 458.886C41.9209 208.155 102.948 13.4828 165.158 24.6002C227.368 35.481 267.106 247.893 254.097 498.625C241.087 749.357 180.06 944.029 117.85 932.911C55.6402 922.03 15.9016 709.618 28.9112 458.886ZM21.1055 514C21.1055 230.153 78.1115 0 148.6 0C218.852 0 276.095 230.153 276.095 514C276.095 797.847 218.852 1028 148.364 1028C78.1114 1028 21.1055 797.847 21.1055 514Z" fill="#EFEFEF"/>
<path fill-rule="evenodd" clip-rule="evenodd" d="M88.9918 239.613C88.9918 241.269 89.2284 243.161 89.7015 244.817C91.5938 251.44 97.0342 256.171 102.711 259.246C111.936 264.213 123.054 265.633 133.461 265.633C149.546 265.633 175.092 260.902 182.661 244.581C184.081 241.506 184.79 238.431 184.79 235.119C184.79 233.463 184.554 231.807 184.081 230.152C182.425 224.002 177.458 219.507 172.017 216.669C162.792 211.702 150.965 210.282 140.794 210.282C124.709 210.282 97.7438 214.067 90.6476 231.571C89.4649 233.936 88.9918 236.775 88.9918 239.613ZM78.1111 315.779C88.2823 314.123 98.2169 312.704 108.388 311.521L114.538 310.812L118.086 329.735L112.173 331.39C97.7438 335.412 88.9918 343.927 88.9918 359.302C88.9918 383.429 113.355 393.837 134.407 393.837C151.675 393.837 172.254 388.16 180.533 371.366C182.661 366.871 183.608 362.141 183.608 357.41C183.608 342.508 171.308 333.519 159.008 327.369L153.331 324.531L160.9 307.027L166.577 308.446C171.071 309.629 175.565 311.048 179.823 312.467C185.5 314.36 191.65 316.489 197.09 319.09L199.929 320.51L200.639 323.585C203.24 334.702 205.606 347.948 205.606 359.302C205.606 380.591 199.692 401.879 184.081 417.018C171.781 428.845 154.986 434.995 137.956 434.995C123.527 434.995 109.334 430.974 97.5073 422.458C75.9822 407.083 67.4668 381.064 67.4668 355.518C67.4668 348.185 68.4129 341.089 69.5956 333.992C70.5418 329.498 71.4879 325.24 72.4341 320.746L73.3803 316.252L78.1111 315.779ZM67.7033 236.065C67.7033 197.746 96.7977 168.651 135.354 168.651C176.275 168.651 205.606 197.746 205.606 238.431C205.606 277.933 176.511 307.264 136.773 307.264C128.494 307.264 120.215 305.844 112.409 303.006C83.5515 292.598 67.7033 266.342 67.7033 236.065ZM181.715 58.4241C180.06 57.4779 172.017 57.7145 170.125 57.7145L129.913 57.951L201.585 88.4646V102.657L131.096 130.569L149.783 131.515C158.534 131.988 169.179 132.697 178.167 131.515H178.404H178.64C179.113 131.515 181.242 131.278 181.715 130.805C182.898 129.859 183.608 122.526 183.608 121.107L184.081 114.957H203.24V172.673H184.081L183.608 166.523C183.371 164.63 182.898 159.899 181.242 158.48C180.533 158.007 179.113 157.534 178.404 157.534C174.619 156.824 170.598 156.351 166.577 155.878C159.244 154.932 151.675 154.459 144.342 153.749L108.152 150.911C106.023 150.674 94.1957 149.728 92.5399 151.384C91.3572 152.33 90.8842 158.953 90.6476 160.373L90.1745 166.523H71.0149V117.559L141.504 86.5723L71.0149 55.1125V6.85855H90.1745L90.8842 13.0085C91.1207 14.4277 91.5938 20.1047 92.3034 21.524C93.9592 22.2336 100.582 21.997 102.238 21.997L170.835 20.3412C172.49 20.3412 181.006 20.1047 182.425 19.1585C183.135 17.9759 183.844 12.0623 183.844 10.6431L184.554 4.72964H203.713L203.713 72.3799H184.554L183.844 66.4664C183.135 64.8106 182.425 59.6068 181.715 58.4241Z" fill="white"/>
<path fill-rule="evenodd" clip-rule="evenodd" d="M162.083 321.455C180.533 330.917 190.231 342.27 190.231 357.409C190.231 382.246 167.997 400.459 134.172 400.459C106.97 400.459 82.1329 385.794 82.1329 359.301C82.1329 345.109 88.5195 331.153 110.281 325.003L109.098 318.143C97.7445 319.326 89.2291 320.745 79.2945 322.401C78.1118 327.368 74.3271 340.851 74.3271 355.753C74.3271 399.513 100.346 428.371 138.193 428.371C167.287 428.371 199.22 408.265 199.22 359.301C199.22 346.765 195.672 329.97 194.489 325.24C188.102 322.165 174.147 317.434 165.158 315.068L162.083 321.455ZM74.5637 236.064C74.5637 278.168 105.55 300.64 137.01 300.64C172.018 300.64 198.983 275.093 198.983 238.43C198.983 203.658 174.856 175.274 135.354 175.274C99.1637 175.274 74.5637 202.476 74.5637 236.064ZM82.1329 239.612C82.1329 218.087 103.895 203.422 140.558 203.422C174.383 203.422 191.414 217.614 191.414 234.882C191.414 258.299 164.922 272.018 133.462 272.018C101.529 272.255 82.1329 258.062 82.1329 239.612ZM196.381 11.1154H189.995C188.576 25.3078 187.156 26.254 170.362 26.7271L101.766 28.3828C86.6272 28.8558 84.9714 27.9097 83.5522 13.2443H77.1656V50.381L157.589 86.3349L77.1656 121.579V159.662H83.5522C84.9714 143.814 87.5733 142.631 108.389 144.051L144.816 146.889C163.975 148.308 173.91 149.727 179.587 150.674C186.21 151.856 189.285 155.168 190.231 165.812H196.618V121.579H190.231C189.049 133.879 187.393 137.427 179.114 138.137C173.437 138.847 164.685 139.083 149.547 138.137L101.766 136.008V135.299L195.435 97.9254V92.7215L100.11 52.0367V51.0905L170.835 50.6175C187.629 50.6175 189.049 51.5636 190.468 65.2829H196.854V11.1154H196.381Z" fill="#EFEFEF"/>
<path fill-rule="evenodd" clip-rule="evenodd" d="M196.381 443.51H189.994C188.812 457.23 187.392 458.649 172.017 458.649H101.765C85.9171 458.649 84.9709 457.23 83.5516 443.51H77.165V498.624H83.5516C84.7343 484.905 85.9171 483.249 101.765 483.249H172.017C187.392 483.249 188.812 484.905 189.994 498.624H196.381V443.51Z" fill="#EFEFEF"/>
<path fill-rule="evenodd" clip-rule="evenodd" d="M28.202 443.747C43.104 443.747 55.404 455.811 55.404 470.949C55.404 485.851 43.3405 498.151 28.202 498.151C13.0635 498.151 1 486.088 1 470.949C1.23654 455.811 13.3 443.747 28.202 443.747Z" fill="white"/>
<path d="M28.202 443.747C43.104 443.747 55.404 455.811 55.404 470.949C55.404 485.851 43.3405 498.151 28.202 498.151C13.0635 498.151 1 486.088 1 470.949C1.23654 455.811 13.3 443.747 28.202 443.747Z" stroke="white" stroke-width="0.5669"/>
<path d="M48.5452 470.712C48.5452 459.477 39.4376 450.37 28.2028 450.37C16.968 450.37 7.86035 459.477 7.86035 470.712C7.86035 481.947 16.968 491.054 28.2028 491.054C39.4376 491.054 48.5452 481.947 48.5452 470.712Z" fill="#EFEFEF"/>
<path d="M48.5452 470.712C48.5452 459.477 39.4376 450.37 28.2028 450.37C16.968 450.37 7.86035 459.477 7.86035 470.712C7.86035 481.947 16.968 491.054 28.2028 491.054C39.4376 491.054 48.5452 481.947 48.5452 470.712Z" stroke="#EFEFEF" stroke-width="0.5669"/>
<path fill-rule="evenodd" clip-rule="evenodd" d="M140.794 713.638L126.838 718.369C131.332 720.025 136.063 721.681 140.794 723.336V713.638ZM91.8304 590.874C93.4862 591.111 96.0881 591.111 97.0343 591.111H170.361C172.254 591.111 178.404 591.111 180.06 589.455C181.242 588.272 181.479 583.778 181.479 582.122C181.479 576.445 180.296 571.005 177.221 566.038C168.942 551.845 150.729 547.351 135.117 547.351C123.29 547.351 108.861 550.19 100.346 559.178C93.2496 566.038 90.8843 574.553 90.8843 584.251C91.3573 585.671 91.3573 588.982 91.8304 590.874ZM203.004 643.15V709.144H184.081L183.135 703.467C182.898 702.521 182.661 700.629 182.425 699.209C181.715 699.446 180.769 699.682 180.296 699.919H180.06C174.619 701.811 169.179 703.704 163.975 705.596V731.379C168.942 733.034 173.91 734.69 178.877 736.346C179.586 736.583 181.006 737.056 182.188 737.292C182.898 735.4 183.135 732.088 183.371 730.906L184.081 724.992H203.24V779.396H184.081L183.371 773.483C183.135 771.354 182.661 767.333 181.242 765.204C179.35 762.365 171.544 759.527 168.469 758.344L71.015 719.552L66.2842 701.102L71.9611 698.973C103.894 687.382 135.827 676.029 167.523 663.965C170.835 662.782 179.35 659.707 181.242 656.632C182.425 654.74 182.898 651.192 183.135 649.063L183.608 645.042L183.135 639.128C182.898 637.709 182.425 630.85 181.479 629.903C180.296 628.957 173.2 628.957 171.544 628.957H101.529C99.8727 628.957 92.7765 628.957 91.3573 629.903C90.6477 631.086 90.1747 636.29 89.9381 637.709L89.2285 643.859H70.0688V582.122C70.0688 562.017 73.3804 540.018 87.5727 524.88C99.1631 512.58 114.775 506.43 131.569 506.43C153.331 506.43 172.727 514.472 185.973 531.976C198.746 548.77 202.531 571.005 202.531 591.584L202.531 643.15H203.004ZM89.7016 880.872L90.1746 885.602C90.4111 887.968 90.8843 891.516 92.0669 893.645C94.1958 897.429 103.184 900.977 106.969 902.633C117.377 907.127 127.784 911.149 138.429 915.406C154.04 921.556 169.652 927.706 185.5 933.856C190.467 935.749 195.435 937.641 200.638 939.533L204.896 941.189V959.639L200.638 961.295C168.233 973.358 136.063 985.658 103.894 998.432C100.819 999.614 93.9593 1002.22 92.0669 1005.05C90.8843 1006.95 90.4111 1010.5 90.1746 1012.86L89.7016 1019.01H70.3053V950.887H89.465L90.4111 956.564C90.6477 957.747 91.1208 960.585 91.5938 962.478C92.3035 962.241 93.0131 962.005 93.4862 961.768C105.55 957.51 117.613 952.779 129.44 948.049C135.117 945.92 141.031 943.554 146.708 941.426C140.084 938.824 133.225 936.458 126.602 934.093C117.377 930.781 108.152 927.47 98.9266 924.631H98.69C97.5073 924.158 93.7227 922.976 91.8304 922.739C91.1208 924.631 90.6477 928.652 90.4111 930.072L89.7016 935.985H70.5419L70.5419 813.694H89.7016L90.1746 819.844C90.4111 821.264 90.8842 827.177 91.5938 828.596C93.0131 829.543 100.109 829.543 101.529 829.543H173.2C174.383 829.543 178.877 829.543 180.533 829.069C181.479 825.994 181.479 821.027 181.479 818.189C181.479 813.694 181.242 807.544 177.458 804.233C172.963 800.212 166.34 797.373 160.9 795.481L154.75 793.352L160.427 774.902L166.34 776.085C171.308 777.031 176.038 777.977 181.006 778.923C186.683 780.106 192.596 781.289 198.037 782.944L202.767 784.364L202.767 885.366H183.371L182.898 879.216C182.661 877.56 182.188 869.754 181.242 868.572C180.06 867.625 173.2 867.625 171.781 867.625H101.529C99.8727 867.625 92.7765 867.625 91.5938 868.572C90.6477 869.754 90.1746 875.904 90.1746 877.323L89.7016 880.872Z" fill="white"/>
<path fill-rule="evenodd" clip-rule="evenodd" d="M76.9291 886.549V929.362H83.5522C85.4445 914.224 88.0464 914.224 100.583 918.482C116.431 923.449 137.72 931.255 164.685 941.426V941.899C147.418 948.522 110.281 962.951 95.6157 968.391C87.8099 971.23 85.681 971.23 83.7887 957.747H77.1656V1012.39H83.7887C84.9714 1001.03 87.5733 998.195 101.529 992.282C120.689 984.713 164.922 967.445 198.274 955.145V945.92C160.427 931.491 118.796 914.933 104.604 908.783C87.1002 901.451 84.9714 898.139 83.7887 886.312H76.9291V886.549ZM163.266 789.094C172.727 792.406 178.404 795.954 182.189 799.266C187.156 803.76 188.339 810.383 188.339 818.189C188.339 823.866 187.866 828.597 186.683 831.908C185.028 835.693 181.952 836.402 173.201 836.402H101.529C85.681 836.402 84.7348 834.747 83.3156 820.791H76.9291V876.851H83.3156C84.4983 862.895 85.681 861.002 101.529 861.002H171.781C187.393 861.002 188.576 862.895 189.758 878.743H196.145L196.145 789.331C191.178 787.912 172.964 783.891 165.158 782.471L163.266 789.094ZM196.381 649.773H189.995C188.576 661.6 186.21 663.729 169.889 669.879C138.429 681.706 106.496 693.059 74.3271 704.886L76.6925 714.348L171.072 751.958C186.447 758.108 188.576 760.473 189.995 772.537H196.381V731.379H189.995C188.339 744.862 185.737 745.335 176.985 742.496C169.652 740.367 163.029 738.002 157.352 735.873V700.629C164.685 697.79 172.491 695.188 178.168 693.296C186.21 690.458 188.339 691.167 189.995 702.048H196.381L196.381 649.773ZM147.418 704.413V733.035C134.408 728.304 120.925 723.573 107.679 718.606V718.133L147.418 704.413ZM76.9291 637H83.3156C84.4983 624.227 85.681 622.334 101.529 622.334H171.545C187.393 622.334 188.339 624.227 189.758 638.655H196.145V591.584C196.145 568.876 191.178 549.48 181.006 535.997C170.362 522.041 154.277 513.053 131.806 513.053C114.302 513.053 101.293 520.149 92.7772 529.374C81.6598 541.201 76.9291 558.942 76.9291 582.122V637ZM97.2714 597.734C91.831 597.734 88.756 597.261 87.1003 595.842C85.9176 594.659 84.4983 590.874 84.4983 584.251C84.4983 571.478 88.283 561.78 95.8522 554.447C104.131 545.932 118.087 540.728 135.591 540.728C168.47 540.728 188.339 557.522 188.339 582.122C188.339 594.896 183.845 597.734 170.599 597.734H97.2714Z" fill="#EFEFEF"/>
</svg>
