<svg width="202" height="55" viewBox="0 0 202 55" fill="none" xmlns="http://www.w3.org/2000/svg">
<path fill-rule="evenodd" clip-rule="evenodd" d="M111.957 6.35661C161.124 8.90776 199.298 20.875 197.118 33.0741C194.985 45.2732 153.331 53.0658 104.164 50.5146C54.9964 47.9635 16.822 35.9963 19.002 23.7972C21.1357 11.5981 62.789 3.80546 111.957 6.35661ZM101.149 4.82593C156.81 4.82593 201.942 16.0046 201.942 29.8272C201.942 43.6034 156.81 54.8284 101.149 54.8284C45.4876 54.8284 0.355469 43.6034 0.355469 29.7808C0.355469 16.0046 45.4876 4.82593 101.149 4.82593Z" fill="#00A759"/>
<path fill-rule="evenodd" clip-rule="evenodd" d="M154.955 18.1383C154.63 18.1383 154.259 18.1847 153.935 18.2774C152.636 18.6485 151.708 19.7153 151.105 20.8286C150.131 22.6376 149.853 24.8176 149.853 26.8586C149.853 30.0127 150.781 35.0222 153.981 36.5065C154.584 36.7848 155.187 36.924 155.836 36.924C156.161 36.924 156.486 36.8776 156.811 36.7848C158.017 36.4601 158.898 35.4861 159.454 34.4192C160.429 32.6102 160.707 30.291 160.707 28.2965C160.707 25.1423 159.965 19.8545 156.532 18.463C156.068 18.231 155.512 18.1383 154.955 18.1383ZM140.019 16.0046C140.344 17.9991 140.622 19.9473 140.854 21.9418L140.993 23.1478L137.283 23.8436L136.958 22.684C136.169 19.8545 134.5 18.1383 131.485 18.1383C126.753 18.1383 124.713 22.9159 124.713 27.0441C124.713 30.4302 125.826 34.4656 129.119 36.0891C130 36.5065 130.928 36.6921 131.856 36.6921C134.778 36.6921 136.541 34.2801 137.747 31.8681L138.303 30.7549L141.736 32.2392L141.457 33.3524C141.225 34.2337 140.947 35.115 140.669 35.9499C140.298 37.0631 139.88 38.2691 139.37 39.336L139.092 39.8926L138.489 40.0318C136.309 40.542 133.711 41.0058 131.485 41.0058C127.31 41.0058 123.135 39.8462 120.167 36.7848C117.848 34.3728 116.642 31.0795 116.642 27.7399C116.642 24.9104 117.43 22.1273 119.1 19.8081C122.115 15.5871 127.217 13.9173 132.227 13.9173C133.665 13.9173 135.056 14.1028 136.448 14.3347C137.329 14.5203 138.164 14.7058 139.045 14.8913L139.927 15.0769L140.019 16.0046ZM155.651 13.9637C163.165 13.9637 168.871 19.669 168.871 27.2296C168.871 35.2541 163.165 41.0058 155.187 41.0058C147.441 41.0058 141.689 35.3005 141.689 27.5079C141.689 25.8845 141.968 24.261 142.524 22.7303C144.565 17.0714 149.714 13.9637 155.651 13.9637ZM190.486 36.321C190.671 35.9963 190.625 34.4192 190.625 34.0482L190.578 26.1628L184.595 40.2173H181.812L176.338 26.3947L176.153 30.0591C176.06 31.7753 175.921 33.8626 176.153 35.6252V35.6716V35.718C176.153 35.8108 176.199 36.2282 176.292 36.321C176.478 36.5529 177.915 36.6921 178.194 36.6921L179.4 36.7848V40.542H168.082V36.7848L169.288 36.6921C169.659 36.6457 170.587 36.5529 170.865 36.2282C170.958 36.0891 171.051 35.8108 171.051 35.6716C171.19 34.9295 171.283 34.1409 171.375 33.3524C171.561 31.9145 171.654 30.4302 171.793 28.9922L172.349 21.8954C172.396 21.4779 172.581 19.1587 172.257 18.834C172.071 18.6021 170.772 18.5093 170.494 18.463L169.288 18.3702V14.613H178.89L184.966 28.4356L191.135 14.613H200.597V18.3702L199.392 18.5093C199.113 18.5557 198 18.6485 197.722 18.7877C197.583 19.1123 197.629 20.4111 197.629 20.7358L197.954 34.1873C197.954 34.512 198 36.1818 198.186 36.4601C198.417 36.5993 199.577 36.7384 199.855 36.7384L201.015 36.8776V40.6347H187.749V36.8776L188.909 36.7384C189.233 36.5993 190.254 36.4601 190.486 36.321Z" fill="white"/>
<path fill-rule="evenodd" clip-rule="evenodd" d="M138.906 32.4711C137.051 36.0891 134.824 37.9908 131.856 37.9908C126.985 37.9908 123.414 33.6307 123.414 26.9977C123.414 21.6635 126.29 16.7931 131.485 16.7931C134.268 16.7931 137.004 18.0455 138.21 22.3129L139.556 22.081C139.324 19.8545 139.045 18.1847 138.721 16.2365C137.747 16.0046 135.103 15.2625 132.18 15.2625C123.599 15.2625 117.94 20.3647 117.94 27.7863C117.94 33.4915 121.883 39.7534 131.485 39.7534C133.943 39.7534 137.236 39.0577 138.164 38.8257C138.767 37.5734 139.695 34.8367 140.159 33.0741L138.906 32.4711ZM155.651 15.3088C147.395 15.3088 142.988 21.3852 142.988 27.5543C142.988 34.4192 147.998 39.707 155.187 39.707C162.006 39.707 167.572 34.9758 167.572 27.2296C167.572 20.1328 162.238 15.3088 155.651 15.3088ZM154.955 16.7931C159.176 16.7931 162.052 21.0605 162.052 28.2501C162.052 34.8831 159.269 38.2228 155.883 38.2228C151.291 38.2228 148.601 33.0277 148.601 26.8586C148.554 20.5967 151.337 16.7931 154.955 16.7931ZM199.763 39.1968V37.9444C196.98 37.6661 196.794 37.3878 196.701 34.0945L196.377 20.643C196.284 17.6744 196.469 17.3497 199.345 17.0714V15.8191H192.063L185.012 31.5898L178.101 15.8191H170.633V17.0714C173.741 17.3497 173.973 17.86 173.695 21.9418L173.138 29.085C172.86 32.8422 172.581 34.7903 172.396 35.9035C172.164 37.2023 171.514 37.8053 169.427 37.9908V39.2432H178.101V37.9908C175.689 37.7589 174.993 37.4342 174.854 35.8108C174.715 34.6975 174.669 32.9813 174.854 30.0127L175.272 20.643H175.411L182.74 39.0113H183.76L191.738 20.3184H191.924L192.016 34.1873C192.016 37.4806 191.831 37.7589 189.141 38.0372V39.2896H199.763V39.1968Z" fill="#151616"/>
<path fill-rule="evenodd" clip-rule="evenodd" d="M114.972 39.1968V37.9444C112.281 37.7125 112.003 37.4342 112.003 34.4192V20.643C112.003 17.5353 112.281 17.3497 114.972 17.0714V15.819H104.164V17.0714C106.854 17.3033 107.179 17.5353 107.179 20.643V34.4192C107.179 37.4342 106.854 37.7125 104.164 37.9444V39.1968H114.972Z" fill="#00A759"/>
<path fill-rule="evenodd" clip-rule="evenodd" d="M62.0005 28.2965L61.0728 25.5598C60.7481 26.4411 60.4234 27.3688 60.0987 28.2965H62.0005ZM86.0741 18.6949C86.0277 19.0196 86.0277 19.5298 86.0277 19.7153V34.0945C86.0277 34.4656 86.0277 35.6716 86.3524 35.9963C86.5843 36.2282 87.4656 36.2746 87.7903 36.2746C88.9035 36.2746 89.9703 36.0427 90.9444 35.4397C93.7275 33.8162 94.6088 30.2446 94.6088 27.1832C94.6088 24.864 94.0522 22.0346 92.2896 20.3647C90.9444 18.9732 89.2746 18.5093 87.3728 18.5093C87.0945 18.6021 86.4451 18.6021 86.0741 18.6949ZM75.8231 40.4956H62.8818V36.7848L63.995 36.5993C64.1806 36.5529 64.5517 36.5065 64.83 36.4601C64.7836 36.321 64.7372 36.1354 64.6908 36.0427V35.9963C64.3197 34.9294 63.9487 33.8626 63.5776 32.8421H58.5217C58.197 33.8162 57.8723 34.7903 57.5476 35.7644C57.5012 35.9035 57.4085 36.1818 57.3621 36.4138C57.7331 36.5529 58.3825 36.5993 58.6144 36.6457L59.7741 36.7848V40.542H49.1056V36.7848L50.2652 36.6457C50.6827 36.5993 51.4712 36.5065 51.8887 36.2282C52.4453 35.8571 53.0019 34.3264 53.2339 33.7234L60.8409 14.6131L64.4589 13.6854L64.8763 14.7986C67.1492 21.0605 69.3756 27.3224 71.7413 33.5379C71.9732 34.1873 72.5762 35.8571 73.1792 36.2282C73.5503 36.4601 74.246 36.5529 74.6635 36.5993L75.452 36.6921L76.6116 36.5993C76.8899 36.5529 78.2351 36.4601 78.4206 36.2746C78.6062 36.0427 78.6061 34.6511 78.6061 34.3265V20.5966C78.6061 20.272 78.6062 18.8804 78.4206 18.6021C78.1887 18.463 77.1682 18.3702 76.8899 18.3238L75.6839 18.1846V14.4275H87.7903C91.733 14.4275 96.0467 15.0769 99.0153 17.86C101.427 20.1328 102.633 23.1942 102.633 26.4875C102.633 30.7548 101.056 34.5584 97.6238 37.1559C94.3305 39.6607 89.9704 40.4028 85.9349 40.4028H75.8231V40.4956ZM29.2067 18.2774L28.279 18.3702C27.8152 18.4166 27.1194 18.5093 26.7019 18.7413C25.9598 19.1587 25.264 20.9213 24.9393 21.6635C24.058 23.7044 23.2695 25.7453 22.4346 27.8326C21.2286 30.894 20.0226 33.9554 18.8166 37.0631C18.4455 38.0372 18.0744 39.0113 17.7033 40.0317L17.3787 40.8667H13.7607L13.436 40.0317C11.0704 33.6771 8.65837 27.3688 6.15361 21.0605C5.92169 20.4575 5.41146 19.1123 4.85485 18.7413C4.48377 18.5093 3.788 18.4166 3.32416 18.3702L2.11816 18.2774V14.4739H15.4769V18.231L14.3637 18.4166C14.1317 18.463 13.5751 18.5557 13.2041 18.6485C13.2504 18.7876 13.2968 18.9268 13.3432 19.0196C14.1781 21.3852 15.1058 23.7508 16.0335 26.07C16.451 27.1832 16.9148 28.3429 17.3323 29.4561C17.8425 28.1573 18.3063 26.8122 18.7702 25.5134C19.4196 23.7044 20.069 21.8954 20.6256 20.0864V20.04C20.7183 19.8081 20.9503 19.066 20.9966 18.6949C20.6256 18.5557 19.837 18.463 19.5587 18.4166L18.3991 18.2774V14.5203H42.3799V18.2774L41.1739 18.3702C40.8956 18.4166 39.736 18.5093 39.4577 18.6485C39.2721 18.9268 39.2721 20.3183 39.2721 20.5966V34.6511C39.2721 34.8831 39.2721 35.7644 39.3649 36.0891C39.9679 36.2746 40.942 36.2746 41.4986 36.2746C42.3799 36.2746 43.5859 36.2282 44.2353 35.4861C45.0238 34.6048 45.5804 33.306 45.9515 32.2392L46.3689 31.0332L49.9869 32.1464L49.755 33.306C49.5695 34.2801 49.3839 35.2078 49.1984 36.1818C48.9665 37.2951 48.7346 38.4547 48.4099 39.5215L48.1316 40.4492H28.3254V36.6457L29.5314 36.5529C29.8561 36.5065 31.3868 36.4137 31.6187 36.2282C31.8042 35.9963 31.8042 34.6511 31.8042 34.3728V20.5966C31.8042 20.272 31.8042 18.8804 31.6187 18.6485C31.3868 18.463 30.1808 18.3702 29.9025 18.3702L29.2067 18.2774Z" fill="white"/>
<path fill-rule="evenodd" clip-rule="evenodd" d="M28.0935 15.7727H19.698V17.0714C22.6666 17.4425 22.6666 17.9528 21.8316 20.4111C20.8576 23.5189 19.3269 27.6935 17.3323 32.9813H17.2396C15.9408 29.5952 13.1114 22.3129 12.0445 19.4371C11.4879 17.9064 11.4879 17.4889 14.1318 17.1178V15.8191H3.41699V17.1178C5.64345 17.3498 6.20006 17.86 7.35967 20.5967C8.84398 24.3538 12.23 33.0277 14.642 39.5679H16.451C19.2805 32.1464 22.5274 23.9827 23.7334 21.1997C25.1713 17.7672 25.8207 17.3498 28.1399 17.1178V15.7727H28.0935ZM47.204 32.703C46.5546 34.5584 45.8588 35.6716 45.2094 36.4138C44.3281 37.3878 43.0293 37.6197 41.4987 37.6197C40.3854 37.6197 39.4577 37.527 38.8084 37.2951C38.0662 36.9704 37.9271 36.3674 37.9271 34.6511V20.5967C37.9271 17.4889 38.2517 17.3034 40.9884 17.0251V15.7727H29.9953V17.0251C32.732 17.257 33.1031 17.4889 33.1031 20.5967V34.3728C33.1031 37.4342 32.732 37.6661 29.6242 37.8981V39.1504H47.1576C47.4359 38.1764 48.2244 34.6048 48.5027 33.0741L47.204 32.703ZM74.5244 39.1968V37.9444C72.2052 37.6661 71.7877 37.2023 70.5817 34.0018C68.2625 27.8326 66.036 21.5707 63.7168 15.2625L61.8614 15.7263L54.4863 34.2337C53.2803 37.2487 52.8165 37.6661 50.4509 37.9444V39.1968H58.5218V37.9444C55.8778 37.6198 55.7851 37.1095 56.3417 35.3933C56.7592 33.9554 57.223 32.6566 57.6405 31.5434H64.5517C65.1084 32.9813 65.6186 34.512 65.9897 35.6252C66.5463 37.2023 66.4071 37.6198 64.2734 37.9444V39.1968H74.5244ZM63.8096 29.5952H58.1971C59.1248 27.0441 60.0524 24.4002 61.0265 21.8027H61.1193L63.8096 29.5952ZM77.0292 15.7727V17.0251C79.5339 17.257 79.905 17.4889 79.905 20.5967V34.3265C79.905 37.4342 79.5339 37.6198 76.7045 37.8981V39.1504H85.935C90.3879 39.1504 94.1914 38.1764 96.8354 36.1818C99.572 34.0945 101.335 30.9404 101.335 26.5339C101.335 23.1014 99.9431 20.5503 98.1341 18.8804C95.8149 16.7004 92.3361 15.7727 87.7904 15.7727H77.0292ZM84.729 19.7617C84.729 18.6949 84.8218 18.0919 85.1001 17.7672C85.332 17.5353 86.0742 17.257 87.3729 17.257C89.8777 17.257 91.7794 17.9991 93.2174 19.4834C94.8872 21.1069 95.9077 23.8436 95.9077 27.276C95.9077 33.7235 92.6144 37.6197 87.7904 37.6197C85.2856 37.6197 84.729 36.7384 84.729 34.1409V19.7617Z" fill="#151616"/>
</svg>
