<svg width="80" height="80" viewBox="0 0 80 80" fill="none" xmlns="http://www.w3.org/2000/svg">
<g filter="url(#filter0_d)">
<path d="M35.586 44.3291C30.9089 39.6521 29.8529 34.975 29.6146 33.1011C29.5481 32.583 29.7264 32.0634 30.097 31.6953L33.8819 27.9121C34.4387 27.3557 34.5375 26.4885 34.1202 25.8211L28.0939 16.4636C27.6322 15.7246 26.6842 15.4579 25.9049 15.8477L16.2306 20.404C15.6004 20.7143 15.2297 21.3839 15.3013 22.0827C15.8082 26.8983 17.9076 38.7363 29.5411 50.3706C41.1747 62.005 53.0109 64.1036 57.8291 64.6105C58.5279 64.6821 59.1975 64.3114 59.5078 63.6812L64.0641 54.0069C64.4525 53.2292 64.1875 52.2838 63.4515 51.8212L54.094 45.7966C53.427 45.3789 52.5599 45.477 52.003 46.0332L48.2198 49.8181C47.8517 50.1888 47.3321 50.3671 46.814 50.3005C44.9401 50.0623 40.2631 49.0062 35.586 44.3291Z" fill="#282828"/>
<path d="M54.158 41.8091C53.2248 41.8091 52.4683 41.0526 52.4683 40.1194C52.4604 33.1238 46.7913 27.4547 39.7956 27.4468C38.8625 27.4468 38.106 26.6903 38.106 25.7571C38.106 24.8239 38.8625 24.0674 39.7956 24.0674C48.6569 24.0772 55.8379 31.2582 55.8477 40.1194C55.8477 41.0526 55.0912 41.8091 54.158 41.8091Z" fill="#282828"/>
<path d="M62.6065 41.8094C61.6733 41.8094 60.9168 41.0529 60.9168 40.1197C60.9037 28.4602 51.4551 19.0116 39.7956 18.9985C38.8625 18.9985 38.106 18.242 38.106 17.3088C38.106 16.3756 38.8625 15.6191 39.7956 15.6191C53.3207 15.634 64.2813 26.5946 64.2962 40.1197C64.2962 40.5678 64.1181 40.9976 63.8013 41.3145C63.4844 41.6313 63.0546 41.8094 62.6065 41.8094Z" fill="#282828"/>
</g>
<defs>
<filter id="filter0_d" x="-5.70752" y="-8.38086" width="97" height="97" filterUnits="userSpaceOnUse" color-interpolation-filters="sRGB">
<feFlood flood-opacity="0" result="BackgroundImageFix"/>
<feColorMatrix in="SourceAlpha" type="matrix" values="0 0 0 0 0 0 0 0 0 0 0 0 0 0 0 0 0 0 127 0"/>
<feOffset/>
<feGaussianBlur stdDeviation="7.5"/>
<feColorMatrix type="matrix" values="0 0 0 0 0.904167 0 0 0 0 0.904167 0 0 0 0 0.904167 0 0 0 1 0"/>
<feBlend mode="normal" in2="BackgroundImageFix" result="effect1_dropShadow"/>
<feBlend mode="normal" in="SourceGraphic" in2="effect1_dropShadow" result="shape"/>
</filter>
</defs>
</svg>
