<svg width="25" height="25" viewBox="0 0 25 25" fill="none" xmlns="http://www.w3.org/2000/svg">
<path d="M13.8806 12.501L24.7135 1.66812C25.0949 1.28673 25.0949 0.66837 24.7135 0.287023C24.3321 -0.0943235 23.7137 -0.0943724 23.3324 0.287023L12.4995 11.1199L1.66666 0.287023C1.28526 -0.0943724 0.666905 -0.0943724 0.285559 0.287023C-0.0957884 0.668419 -0.0958372 1.28678 0.285559 1.66812L11.1184 12.501L0.285559 23.3338C-0.0958372 23.7152 -0.0958372 24.3336 0.285559 24.7149C0.476232 24.9056 0.726183 25.0009 0.976133 25.0009C1.22608 25.0009 1.47599 24.9056 1.66671 24.7149L12.4995 13.8821L23.3323 24.7149C23.523 24.9056 23.773 25.0009 24.0229 25.0009C24.2729 25.0009 24.5228 24.9056 24.7135 24.7149C25.0949 24.3336 25.0949 23.7152 24.7135 23.3338L13.8806 12.501Z" fill="#7E7E7E"/>
</svg>
