<svg width="14" height="14" viewBox="0 0 14 14" fill="none" xmlns="http://www.w3.org/2000/svg">
<path d="M14 8.31257C14 7.962 13.8606 7.63532 13.6202 7.3944C13.8927 7.09632 14.0315 6.69672 13.9936 6.28082C13.9253 5.5394 13.2574 4.9584 12.4722 4.9584H8.869C9.0475 4.41647 9.33332 3.42307 9.33332 2.62507C9.33332 1.35982 8.25825 0.291748 7.58332 0.291748C6.97782 0.291748 6.5444 0.632998 6.52632 0.646998C6.4569 0.702424 6.41665 0.786424 6.41665 0.875072V2.85315L4.73607 6.49257L4.66665 6.52815V6.41672C4.66665 6.25572 4.53597 6.12505 4.37497 6.12505H1.45832C0.653926 6.12507 0 6.779 0 7.5834V12.2501C0 13.0545 0.653926 13.7084 1.45832 13.7084H3.20832C3.8389 13.7084 4.3779 13.3059 4.5809 12.7441C5.06625 12.9938 5.71957 13.1251 6.125 13.1251H11.4794C12.1147 13.1251 12.6706 12.6969 12.8013 12.1066C12.8683 11.8021 12.8293 11.4958 12.6962 11.2298C13.1267 11.0134 13.4167 10.5683 13.4167 10.0626C13.4167 9.85607 13.3694 9.65832 13.2802 9.47982C13.7107 9.26282 14 8.81832 14 8.31257ZM12.7697 9.0324C12.6572 9.04582 12.5621 9.12222 12.5259 9.23015C12.4904 9.33807 12.5201 9.45647 12.6029 9.53465C12.7511 9.67407 12.8334 9.8619 12.8334 10.0626C12.8334 10.4306 12.5551 10.7398 12.187 10.7824C12.0745 10.7958 11.9794 10.8722 11.9432 10.9801C11.9076 11.0881 11.9374 11.2065 12.0202 11.2846C12.2121 11.4655 12.2891 11.7192 12.2314 11.9806C12.1596 12.3061 11.8435 12.5417 11.4795 12.5417H6.125C5.65132 12.5417 4.85682 12.3195 4.5815 12.0436C4.49807 11.9607 4.37207 11.9362 4.26357 11.9806C4.1545 12.0255 4.08332 12.1322 4.08332 12.2501C4.08332 12.7325 3.69075 13.1251 3.20832 13.1251H1.45832C0.975898 13.1251 0.583324 12.7325 0.583324 12.2501V7.5834C0.583324 7.10097 0.975898 6.7084 1.45832 6.7084H4.08332V7.00007C4.08332 7.101 4.13582 7.1949 4.22215 7.24857C4.30732 7.2999 4.41465 7.30515 4.50565 7.26082L5.08897 6.96915C5.1479 6.93997 5.19515 6.89097 5.22315 6.8309L6.97315 3.03922C6.99065 3.00072 6.99997 2.95872 6.99997 2.91672V1.03315C7.12132 0.966072 7.33193 0.875072 7.58332 0.875072C7.903 0.875072 8.75 1.66957 8.75 2.62507C8.75 3.65175 8.19118 5.13165 8.18593 5.14625C8.1521 5.2355 8.16375 5.33642 8.218 5.41575C8.27282 5.4945 8.36268 5.54175 8.45832 5.54175H12.4722C12.9587 5.54175 13.3717 5.89 13.4126 6.3345C13.4435 6.667 13.2836 6.98318 12.9972 7.15992C12.908 7.21475 12.8549 7.31392 12.859 7.4195C12.8631 7.52507 12.9237 7.61957 13.0171 7.668C13.2638 7.79343 13.4166 8.04075 13.4166 8.31257C13.4167 8.68065 13.1384 8.98982 12.7697 9.0324Z" fill="black"/>
<path d="M4.37566 6.70825C4.21466 6.70825 4.08398 6.83893 4.08398 6.99993V12.2499C4.08398 12.4109 4.21466 12.5416 4.37566 12.5416C4.53666 12.5416 4.66734 12.4109 4.66734 12.2499V6.99993C4.66734 6.83893 4.53666 6.70825 4.37566 6.70825Z" fill="black"/>
</svg>
