<svg width="11" height="11" viewBox="0 0 11 11" fill="none" xmlns="http://www.w3.org/2000/svg">
<g clip-path="url(#clip0)">
<path d="M5.65983 0.0673241C5.57045 -0.0222872 5.42535 -0.022459 5.33574 0.066916C5.33561 0.0670449 5.33546 0.0671952 5.33533 0.0673241L1.21033 4.19232C1.12239 4.28335 1.12493 4.42844 1.21596 4.51637C1.30477 4.60214 1.44556 4.60214 1.53436 4.51637L5.2684 0.782324V10.7708C5.2684 10.8973 5.37101 10.9999 5.49758 10.9999C5.62414 10.9999 5.72675 10.8973 5.72675 10.7708V0.782324L9.46033 4.5159C9.54826 4.60693 9.69333 4.60946 9.78438 4.52153C9.87541 4.43359 9.87792 4.28853 9.79001 4.19748C9.78816 4.19557 9.78629 4.1937 9.78438 4.19185L5.65983 0.0673241Z" fill="#282828"/>
<path d="M9.62261 4.58351C9.56178 4.58362 9.50341 4.55956 9.46036 4.51659L5.49761 0.553389L1.53486 4.51661C1.44383 4.60455 1.29874 4.60201 1.21081 4.51098C1.12504 4.42217 1.12504 4.28138 1.21081 4.19258L5.33581 0.067584C5.42529 -0.0218769 5.57035 -0.0218769 5.65986 0.067584L9.78486 4.19258C9.87421 4.28222 9.87399 4.42732 9.78434 4.51667C9.74139 4.55947 9.68324 4.58351 9.62261 4.58351Z" fill="#282828"/>
<path d="M5.49724 11C5.37068 11 5.26807 10.8974 5.26807 10.7708V0.229174C5.26807 0.102609 5.37068 0 5.49724 0C5.62381 0 5.72642 0.102609 5.72642 0.229174V10.7708C5.72639 10.8974 5.62381 11 5.49724 11Z" fill="#282828"/>
</g>
<defs>
<clipPath id="clip0">
<rect width="11" height="11" fill="white"/>
</clipPath>
</defs>
</svg>
