<svg width="17" height="17" viewBox="0 0 17 17" fill="none" xmlns="http://www.w3.org/2000/svg">
<g clip-path="url(#clip0)">
<path d="M16.937 8.29888C16.8032 8.10407 13.5859 3.54163 8.49996 3.54163C4.13584 3.54163 0.247027 8.07787 0.0833993 8.27125C-0.0277997 8.403 -0.0277997 8.59638 0.0833993 8.72883C0.247027 8.92221 4.13584 13.4585 8.49996 13.4585C12.8641 13.4585 16.7529 8.92221 16.9165 8.72883C17.0192 8.60701 17.0284 8.43063 16.937 8.29888ZM8.49996 12.7501C5.00146 12.7501 1.67505 9.41382 0.830016 8.50006C1.67365 7.5856 4.99651 4.24999 8.49996 4.24999C12.5935 4.24999 15.4828 7.58135 16.1883 8.48093C15.3737 9.36564 12.0282 12.7501 8.49996 12.7501Z" fill="black"/>
<path d="M8.49938 5.66663C6.93678 5.66663 5.66602 6.9374 5.66602 8.49999C5.66602 10.0626 6.93678 11.3334 8.49938 11.3334C10.062 11.3334 11.3327 10.0626 11.3327 8.49999C11.3327 6.9374 10.062 5.66663 8.49938 5.66663ZM8.49938 10.6251C7.32779 10.6251 6.37435 9.67162 6.37435 8.50003C6.37435 7.32843 7.32779 6.37499 8.49938 6.37499C9.67097 6.37499 10.6244 7.32843 10.6244 8.50003C10.6244 9.67162 9.67097 10.6251 8.49938 10.6251Z" fill="black"/>
</g>
<defs>
<clipPath id="clip0">
<rect width="17" height="17" fill="white"/>
</clipPath>
</defs>
</svg>
